<?xml version="1.0" standalone="no"?>
<!DOCTYPE svg PUBLIC "-//W3C//DTD SVG 20010904//EN"
 "http://www.w3.org/TR/2001/REC-SVG-20010904/DTD/svg10.dtd">
<svg version="1.0" xmlns="http://www.w3.org/2000/svg"
 width="640.000000pt" height="640.000000pt" viewBox="0 0 640.000000 640.000000"
 preserveAspectRatio="xMidYMid meet">
<metadata>
Created by potrace 1.14, written by Peter Selinger 2001-2017
</metadata>
<g transform="translate(0.000000,640.000000) scale(0.100000,-0.100000)"
fill="#ffffff" stroke="none">
<path d="M3008 6254 l-28 -5 0 -1410 c0 -775 3 -1408 8 -1408 4 1 50 47 102
103 157 166 1839 1945 1909 2018 56 60 62 69 50 84 -29 36 -312 213 -454 286
-315 160 -622 259 -961 309 -135 20 -556 35 -626 23z"/>
<path d="M1840 5942 c-595 -298 -1066 -760 -1368 -1342 -148 -285 -265 -643
-307 -942 l-7 -48 911 0 911 0 0 1195 c0 950 -3 1195 -12 1195 -7 -1 -65 -27
-128 -58z"/>
<path d="M4838 4100 c-464 -484 -844 -884 -846 -888 -3 -9 1657 -1852 1668
-1852 19 0 212 316 290 475 143 290 233 573 282 886 19 126 22 184 22 464 1
342 -3 392 -54 645 -51 255 -139 502 -268 755 -73 142 -229 395 -244 395 -4 0
-386 -396 -850 -880z"/>
<path d="M2980 1538 l0 -1406 88 -8 c109 -9 357 2 510 22 361 46 693 148 1007
309 134 68 349 197 360 215 5 7 -1840 2145 -1936 2245 l-29 30 0 -1407z"/>
<path d="M160 2753 c0 -30 38 -214 70 -340 199 -779 727 -1472 1435 -1880 89
-51 291 -153 305 -153 7 0 10 390 10 1190 l0 1190 -910 0 c-501 0 -910 -3
-910 -7z"/>
</g>
</svg>
